<?xml version="1.0" encoding="UTF-8"?>
<svg id="Capa_1" xmlns="http://www.w3.org/2000/svg" version="1.1" viewBox="0 0 409.99 218.13">
  <!-- Generator: Adobe Illustrator 29.5.1, SVG Export Plug-In . SVG Version: 2.1.0 Build 141)  -->
  <defs>
    <style>
      .st0 {
        fill: #fff;
      }

      .st1 {
        fill: #e6007e;
      }
    </style>
  </defs>
  <g>
    <path class="st0" d="M90.47,113.06c-9.79-7.95-19.92-15.83-30.13-23.42l-2.5-1.86-1.88,2.49c-2.69,3.56-1.74,3.54-4.38,7.14l-1.86,2.53,2.53,1.86c10.05,7.39,16.4,18.72,26.05,26.47,1.75,1.42,3.87,2.17,6.07,2.17.39,0,.78-.02,1.17-.07,2.51-.3,4.78-1.57,6.37-3.56,3.34-4.18,2.71-10.35-1.43-13.75Z"/>
    <path class="st0" d="M313.17,69.37c-1.71-2.1-4.15-3.41-6.88-3.68-6.48-.65-13.07-1.24-19.59-1.76l-3.13-.25-1.55,15.44,3.13.25c6.38.51,12.84,5.17,19.19,5.8.34.03.68.05,1.02.05,5.04,0,9.39-3.74,9.93-8.74.28-2.56-.47-5.08-2.12-7.11Z"/>
    <path class="st0" d="M309.12,117.43c-1.35-1.67-3.27-2.71-5.4-2.93-8.66-.89-15.14-8.69-14.45-17.38l3.63-43.46c.18-2.09-.49-4.15-1.88-5.78-1.49-1.75-3.61-2.82-5.97-3-.24-.02-.47-.03-.7-.03-2.1,0-4.09.73-5.66,2.08-1.62,1.41-2.6,3.33-2.74,5.42l-3.01,43.53c-.54,8.52,2.2,16.81,7.7,23.35,5.48,6.5,13.08,10.55,21.42,11.41,4.47.45,8.31-2.82,8.8-7.22.24-2.17-.38-4.3-1.75-6Z"/>
    <path class="st0" d="M245.31,69.71l-1.99,48.99c-.18,4.52,3.29,8.37,7.73,8.58.13,0,.25,0,.38,0,4.31,0,7.88-3.43,8.13-7.82l2.7-48.94c.12-2.15-.62-4.23-2.08-5.86h0c-1.54-1.7-3.67-2.71-6-2.82-.15,0-.3-.01-.45-.01-2.16,0-4.2.79-5.79,2.24-1.61,1.48-2.55,3.48-2.63,5.63Z"/>
    <path class="st0" d="M262.47,40.19c-1.88-2.08-4.49-3.31-7.35-3.44-2.86-.14-5.58.83-7.65,2.73-1.95,1.79-3.08,4.2-3.18,6.8-.21,5.47,4.22,10.13,9.88,10.4h0c.17,0,.34.01.51.01,5.44,0,10.01-4.13,10.31-9.43.15-2.59-.75-5.1-2.52-7.07Z"/>
    <path class="st0" d="M89.25,73.55c1.42-1.72,2.06-3.86,1.81-6.04-.25-2.16-1.37-4.08-3.14-5.41-3.64-2.74-8.95-2.1-11.84,1.43-7.75,9.49-15.41,19.25-22.76,29.02l-2.37,3.15-5.33-33.35c-.33-2.07-1.47-3.9-3.21-5.16-1.45-1.05-3.24-1.61-5.07-1.61-.49,0-.98.04-1.47.12-2.31.39-4.38,1.67-5.7,3.53-1.24,1.75-1.72,3.85-1.36,5.91l11.6,66.44c.69,3.91,4.03,6.75,7.96,6.75.43,0,.87-.04,1.3-.11,4.33-.72,7.29-4.9,6.59-9.3l-3.09-19.32.41-.56c5.93-8.17,12.58-13.85,19.01-19.34,5.53-4.72,11.25-9.61,16.65-16.16Z"/>
    <path class="st0" d="M226.3,107.5c-8.58-9.23-17.51-18.43-26.55-27.36l-2.22-2.2-2.21,2.21c-3.14,3.15-2.66,2.73-5.77,5.93l-2.18,2.25,2.24,2.19c8.92,8.71,14.09,21.35,22.55,30.35,1.8,1.94,4.24,3.04,6.87,3.09.06,0,.12,0,.18,0,2.47,0,4.81-.94,6.62-2.65,3.88-3.68,4.1-9.87.48-13.81Z"/>
    <path class="st0" d="M231.1,67.53c1.64-1.51,2.57-3.54,2.62-5.73.05-2.17-.79-4.23-2.36-5.79h0c-3.22-3.22-8.56-3.32-11.9-.22-8.85,8.21-17.75,16.82-26.47,25.6l-2.78,2.8-.69-34.52c-.03-1.78-.81-3.49-2.18-4.8-1.6-1.53-3.85-2.39-6.21-2.39-.1,0-.2,0-.3,0-2.49.07-4.82,1.06-6.39,2.74-1.3,1.38-1.98,3.12-1.92,4.9l2.35,68.89c.14,3.93,3.71,7.12,7.97,7.12h.24c4.38-.12,7.88-3.51,7.8-7.56l-.22-19.41.47-.49c7.23-7.53,14.7-12.59,21.91-17.47,5.91-4,12.03-8.15,18.04-13.66Z"/>
    <path class="st0" d="M100.53,93.01c-.86,8.5,1.57,16.89,6.83,23.63,5.23,6.7,12.69,11.04,21,12.21,1.48.21,2.98.31,4.47.31,6.85,0,13.45-2.16,19.09-6.26,6.93-5.02,11.58-12.42,13.1-20.83,1.51-8.33-.44-16.75-5.48-23.73-5.26-7.28-13.15-11.99-22.22-13.26-1.61-.23-3.22-.34-4.81-.34-7.34,0-14.36,2.39-20.16,6.94-6.77,5.31-10.96,12.88-11.81,21.31ZM122.97,88.07c.31-.1.55-.34.64-.65.89-3.07,1.79-6.15,2.7-9.22.46-1.56,1.76-2.71,3.39-3.01,1.67-.31,3.34.34,4.36,1.68,1.96,2.6,3.93,5.23,5.84,7.83.2.27.53.41.89.43,3.27-.04,6.6-.05,9.88-.05,1.71,0,3.23.95,3.96,2.47.72,1.48.53,3.19-.48,4.48-2,2.55-3.98,5.11-5.89,7.6-.19.25-.24.57-.14.87,1.01,3,2.02,6.08,3.01,9.14.51,1.57.09,3.26-1.09,4.42-1.18,1.15-2.87,1.52-4.42.98-3-1.05-6.03-2.1-9.01-3.1-.29-.1-.62-.05-.86.14-2.52,1.92-5.06,3.87-7.55,5.81-.77.6-1.69.91-2.62.91-.63,0-1.26-.14-1.85-.43-1.48-.72-2.41-2.19-2.42-3.85-.02-3.2-.04-6.4-.07-9.59,0-.32-.16-.61-.42-.78-2.66-1.78-5.36-3.57-8.02-5.3-1.39-.91-2.13-2.49-1.93-4.13.2-1.64,1.3-2.99,2.88-3.53,3.08-1.06,6.18-2.1,9.24-3.11Z"/>
    <path class="st1" d="M132.6,86.54c1.01,1.35,2.01,2.71,3.01,4.06.27.37.71.58,1.17.58,1.7-.03,3.4-.05,5.1-.06,1.16-.01,1.83,1.29,1.14,2.2-1.01,1.33-2.02,2.66-3.03,4-.27.36-.35.83-.2,1.26.55,1.58,1.09,3.16,1.62,4.74.37,1.08-.67,2.1-1.75,1.74-1.58-.54-3.17-1.07-4.76-1.59-.43-.14-.9-.06-1.26.21-1.33,1.01-2.66,2.02-3.98,3.03-.9.69-2.2.05-2.21-1.09,0-1.67,0-3.33-.02-5,0-.45-.23-.87-.6-1.13-1.39-.94-2.78-1.88-4.18-2.81-.95-.64-.76-2.08.33-2.44,1.6-.53,3.2-1.05,4.81-1.57.44-.14.77-.48.9-.92.47-1.6.95-3.2,1.42-4.79.32-1.09,1.79-1.33,2.48-.41Z"/>
    <path class="st0" d="M316.3,98.92c-.86,8.5,1.57,16.89,6.83,23.63,5.23,6.7,12.69,11.04,21,12.21,1.48.21,2.98.31,4.47.31,6.85,0,13.45-2.16,19.09-6.26,6.93-5.03,11.58-12.42,13.1-20.83,1.51-8.33-.44-16.75-5.48-23.73-5.26-7.28-13.16-11.99-22.22-13.26-1.61-.23-3.22-.34-4.81-.34-7.34,0-14.36,2.39-20.16,6.94-6.77,5.31-10.96,12.88-11.81,21.31ZM338.74,93.99c.31-.1.55-.34.64-.65.89-3.07,1.79-6.15,2.7-9.22.46-1.56,1.76-2.71,3.39-3.01,1.67-.3,3.34.34,4.36,1.68,1.95,2.58,3.92,5.21,5.84,7.83.2.27.53.43.87.43h.01c3.27-.04,6.6-.05,9.88-.05,1.71,0,3.23.95,3.96,2.47.72,1.48.53,3.19-.48,4.48-1.98,2.53-3.97,5.09-5.89,7.6-.19.25-.24.57-.14.87,1.01,3,2.02,6.08,3.01,9.14.51,1.57.09,3.26-1.09,4.42-1.18,1.15-2.87,1.52-4.42.98-3-1.05-6.03-2.09-9.01-3.1-.29-.1-.62-.05-.86.14-2.51,1.91-5.05,3.86-7.55,5.81-.77.6-1.69.91-2.62.91-.63,0-1.26-.14-1.85-.43-1.48-.72-2.41-2.19-2.42-3.85-.02-3.2-.04-6.39-.07-9.59,0-.32-.16-.61-.42-.78-2.66-1.78-5.36-3.57-8.02-5.3-1.39-.91-2.13-2.49-1.93-4.13.2-1.64,1.3-2.99,2.88-3.53,3.07-1.05,6.17-2.1,9.24-3.11Z"/>
    <path class="st1" d="M348.37,92.45c1.01,1.35,2.01,2.71,3.01,4.06.27.37.71.58,1.17.58,1.7-.03,3.4-.05,5.1-.06,1.16-.01,1.83,1.29,1.14,2.2-1.01,1.33-2.02,2.66-3.03,4-.27.36-.35.83-.2,1.26.55,1.58,1.09,3.16,1.62,4.74.37,1.08-.67,2.1-1.75,1.74-1.58-.54-3.17-1.07-4.76-1.59-.43-.14-.9-.06-1.26.21-1.33,1.01-2.66,2.02-3.98,3.03-.9.69-2.2.05-2.21-1.09,0-1.67,0-3.33-.02-5,0-.45-.23-.87-.6-1.13-1.39-.94-2.78-1.88-4.18-2.81-.95-.64-.76-2.08.33-2.44,1.6-.53,3.2-1.05,4.81-1.57.44-.14.77-.48.9-.92.47-1.6.95-3.2,1.42-4.79.32-1.09,1.79-1.33,2.48-.41Z"/>
  </g>
  <g>
    <path class="st1" d="M167.02,187.15c1.21.39,2.32.46,3.34.23,1.02-.24,1.98-.54,2.87-.93,4.08-1.58,7.77-3.58,11.13-6.06,3.36-2.48,6.39-5.49,9.11-9.09.68-.88,1.28-1.83,1.8-2.84.51-1.01.98-1.99,1.41-2.96,1.65-4.5.17-7.4-4.7-8.54-1.54-.47-3.15-.78-4.84-.92-1.69-.15-3.38-.17-5.07-.08-3.59.29-7.19.74-10.81,1.36-3.62.62-7.21,1.21-10.79,1.76-3.5.6-7.06.98-10.71,1.13-.94.08-1.88.03-2.82-.13-.94-.16-1.86-.36-2.76-.6-4.49-1.23-6.99-3.99-7.32-8.45-.05-1.38.07-2.76.34-4.14.28-1.38.77-2.72,1.5-4.01,3.75-6.5,8.85-11.63,15.09-15.21,6.24-3.58,13.79-5.49,22.31-5.51,1.28.03,2.53.17,3.76.4,1.23.24,2.42.55,3.58.93,2.58.97,3.79,2.77,3.67,5.34,0,.55-.13,1.04-.38,1.47-.25.43-.7.75-1.36.97-1.46.51-2.5.21-3.14-.91-.51-.84-1.18-1.39-2-1.66-.82-.27-1.78-.41-2.87-.41-4.69-.02-9.34.92-13.82,2.8-7.26,2.96-12.82,7.41-16.55,13.08-1.02,1.66-1.73,3.4-2.13,5.22-.7,2.91.69,4.57,4.07,5.06,1.65.23,3.32.26,5.03.09,1.71-.17,3.45-.41,5.23-.72,3-.48,6.04-.99,9.12-1.51,3.08-.53,6.17-.91,9.26-1.16,1.86-.15,3.74-.24,5.61-.26,1.88-.02,3.73.05,5.55.22,1.38.11,2.72.36,4.02.74,1.3.38,2.58.84,3.85,1.36,2.47,1.12,4.17,2.69,5.13,4.69.96,2,1.16,4.24.66,6.72-.33,1.43-.82,2.81-1.45,4.15-.63,1.34-1.37,2.64-2.22,3.89-6.96,9.25-15.28,15.33-25.72,18.85-.83.31-1.69.51-2.6.6-.91.09-1.79.12-2.63.08-2.21-.08-3.85-.75-4.91-2.06-1.07-1.31-1.34-3.03-.77-5.18.24-1.12.61-2.22,1.12-3.28.5-1.06,1.11-2.09,1.82-3.07,1.6-2.32,3.58-4.22,5.89-5.68,2.32-1.46,4.81-2.78,7.47-3.96.71-.25,1.39-.29,2.04-.1.65.19,1.09.57,1.33,1.14.31.62.32,1.17.04,1.65-.29.48-.71.86-1.26,1.15-.67.43-1.32.8-1.97,1.1-.65.31-1.31.62-1.99.94-1.64.88-3.17,1.88-4.58,2.99-1.41,1.11-2.59,2.46-3.55,4.05-.48.8-.87,1.59-1.18,2.38-.31.79-.39,1.76-.24,2.9Z"/>
    <path class="st1" d="M216.81,136.56c1.91-.38,3.88-.79,5.91-1.24,2.03-.44,3.98-.81,5.85-1.12.52-.12,1.06-.23,1.62-.32.56-.09,1.1-.16,1.63-.22,1.42-.11,2.24.36,2.45,1.38.28.91-.21,1.63-1.47,2.16-.82.17-1.59.35-2.33.53-.74.18-1.48.33-2.21.46-1.47.31-3.14.65-5,1.02-1.86.37-3.56.71-5.08,1.01-1.53.3-2.37,1.1-2.52,2.37-.79,4.81-1.23,9.63-1.35,14.44-.12,4.82.17,9.59.82,14.34.17.72.35,1.42.55,2.1.2.69.57,1.35,1.12,1.98.89.93,1.2,1.86.95,2.81-.25.95-1.07,1.48-2.46,1.62-2.53.32-4.37-.6-5.57-2.82-1.05-1.98-1.78-4.04-2.15-6.19-.75-3.57-1.13-7.13-1.08-10.68.05-3.55.15-7.15.29-10.79.08-.85.15-1.75.22-2.7.07-.94.14-1.93.21-2.97-.57.16-1.05.28-1.44.34-.39.06-.8.17-1.23.33-.77.31-1.58.62-2.42.94-.84.32-1.67.67-2.5,1.06-2.55,1.17-4.09,1.26-4.64.23-.76-.88.23-1.98,3.02-3.25,1.11-.6,2.23-1.14,3.35-1.61,1.13-.47,2.3-.91,3.52-1.31,1.22-.4,2.14-.9,2.76-1.49.62-.59,1.04-1.47,1.26-2.63.18-.62.43-1.39.74-2.32.31-.93.73-1.79,1.25-2.57.52-.79,1.18-1.42,1.99-1.88.81-.47,1.75-.57,2.83-.32.92.26,1.43.75,1.54,1.48.1.72.1,1.6,0,2.63-.06.49-.11.97-.16,1.46-.06.49-.14,1.06-.26,1.73Z"/>
    <path class="st1" d="M232.05,161.11c-.69.78-1.33,1.49-1.94,2.12-.61.63-1.21,1.25-1.81,1.86-.6.49-1.22,1-1.84,1.56-.63.55-1.27.98-1.93,1.3-1.18.69-2.29.85-3.32.49-1.04-.36-1.78-1.13-2.23-2.32-.37-.83-.5-1.64-.4-2.43.43-2.74,1.29-5.25,2.61-7.52,1.32-2.27,3.3-4.23,5.98-5.82,1.76-1.04,3.54-1.62,5.32-1.72,1.78-.1,3.59.35,5.41,1.37,1.05.57,1.73,1.13,2.07,1.65.33.53.37,1.33.13,2.41-.17.96-.4,1.91-.67,2.83-.27.93-.49,1.9-.66,2.92-.17.9-.33,1.82-.49,2.75-.16.93-.17,1.67-.02,2.22.15.55.48.83.98.85.5.02,1.34-.47,2.53-1.44.98-.92,1.75-1.64,2.29-2.16.54-.52,1.04-.99,1.51-1.42.47-.43.98-.9,1.52-1.41.55-.51,1.33-1.19,2.36-2.03.29-.22.61-.44.93-.66.33-.22.67-.37,1.03-.47.36-.09.75-.05,1.19.14.44.19.75.41.94.67.2.14.26.37.2.7-.06.33-.14.64-.23.94-.09.24-.36.52-.8.84-.9.84-1.6,1.5-2.11,1.97-.52.48-.99.91-1.43,1.31-.44.39-.92.83-1.46,1.31-.54.48-1.28,1.15-2.2,2-.64.63-1.29,1.2-1.95,1.71-.66.51-1.37.99-2.11,1.44-1.77.95-3.24,1.39-4.46,1.3-1.22-.09-2.2-.56-2.94-1.42-.75-.86-1.29-1.98-1.61-3.37-.32-1.39-.45-2.87-.37-4.44ZM223.43,163.89c.66-.44,1.53-1.18,2.6-2.22,1.07-1.04,2.14-2.12,3.2-3.24,1.06-1.12,2.04-2.2,2.91-3.25.88-1.05,1.43-1.84,1.65-2.38-1.19-.14-2.39.05-3.58.56-1.19.51-2.25,1.27-3.18,2.28-.93,1.01-1.72,2.23-2.38,3.66-.66,1.43-1.07,2.97-1.23,4.6Z"/>
    <path class="st1" d="M257.78,155.03c.75-.53,1.36-.96,1.82-1.27.46-.32.91-.6,1.37-.86.91-.51,1.8-1.02,2.69-1.52.88-.5,1.81-.91,2.79-1.22,2.54-.72,4.6-.22,6.08,1.47,1.15,1.51,1.12,3.28-.03,5.31-.5.96-1.4,1.32-2.7,1.07-.95-.25-1.3-.85-1.03-1.79.22-.58.32-1.05.3-1.42-.05-1.22-.86-1.58-2.43-1.05-.45.19-.94.41-1.47.68-.53.27-.99.56-1.38.88-2.39,1.67-4.45,3.59-6.18,5.76-1.73,2.17-2.68,4.52-2.91,7.05-.08.9-.44,1.69-1.06,2.36-.62.67-1.4,1.06-2.34,1.17-.87.11-1.6-.06-2.19-.53-.59-.46-.93-1.15-1-2.07-.08-.79-.05-2.07.11-3.85.15-1.77.41-3.66.79-5.67.38-2,.91-3.99,1.62-5.97.7-1.98,1.54-3.63,2.5-4.94.48-.63,1.09-1.06,1.83-1.3.74-.24,1.47-.3,2.18-.17,1.63.33,2.26,1.28,1.89,2.82-.15.77-.33,1.56-.56,2.36-.22.8-.45,1.7-.69,2.71Z"/>
  </g>
</svg>